<svg xmlns="http://www.w3.org/2000/svg" viewBox="0 0 1200 630" role="img" aria-label="Project artwork — linacre-uninstaller">
  <defs>
    <radialGradient id="glowA" cx="50%" cy="50%" r="50%">
      <stop offset="0%" stop-color="#f0ab3c" stop-opacity=".15"/>
      <stop offset="100%" stop-color="#f0ab3c" stop-opacity="0"/>
    </radialGradient>
    <radialGradient id="glowT" cx="50%" cy="50%" r="50%">
      <stop offset="0%" stop-color="#58d5c9" stop-opacity=".12"/>
      <stop offset="100%" stop-color="#58d5c9" stop-opacity="0"/>
    </radialGradient>
    <linearGradient id="hairline" x1="0" y1="0" x2="1" y2="0">
      <stop offset="0%" stop-color="#f0ab3c" stop-opacity="0"/>
      <stop offset="50%" stop-color="#58d5c9" stop-opacity=".8"/>
      <stop offset="100%" stop-color="#f0ab3c" stop-opacity="0"/>
    </linearGradient>
    <filter id="soft" x="-60%" y="-60%" width="220%" height="220%">
      <feGaussianBlur stdDeviation="7"/>
    </filter>
    <g id="grid"><path d="M0 0H1200M0 0V630" stroke="#22384a" stroke-opacity=".35" stroke-width="1"/></g>
  </defs>
  <rect width="1200" height="630" fill="#0a0e15"/>
  <g stroke="#22384a" stroke-opacity=".28" stroke-width="1">
    <line x1="150" y1="0" x2="150" y2="630"/><line x1="300" y1="0" x2="300" y2="630"/><line x1="450" y1="0" x2="450" y2="630"/><line x1="600" y1="0" x2="600" y2="630"/><line x1="750" y1="0" x2="750" y2="630"/><line x1="900" y1="0" x2="900" y2="630"/><line x1="1050" y1="0" x2="1050" y2="630"/>
    <line x1="0" y1="150" x2="1200" y2="150"/><line x1="0" y1="300" x2="1200" y2="300"/><line x1="0" y1="450" x2="1200" y2="450"/><line x1="0" y1="600" x2="1200" y2="600"/>
  </g>  <circle cx="560" cy="330" r="280" fill="url(#glowT)"/>
  <circle cx="300" cy="220" r="170" fill="url(#glowA)"/>
<g fill="none" stroke-linecap="round" stroke-linejoin="round" vector-effect="non-scaling-stroke">
<path d="M470 250 h180 l-22 230 a18 18 0 0 1 -18 16 h-80 a18 18 0 0 1 -18 -16z" stroke="#f0ab3c" stroke-width="4.5"/><path d="M442 250 h216 M536 250 v-30 a18 18 0 0 1 18 -18 h32 a18 18 0 0 1 18 18 v30" stroke="#f0ab3c" stroke-width="4.5"/><path d="M536 286 v160" stroke="#f0ab3c" stroke-width="3.5" opacity=".65"/><path d="M574 286 v160" stroke="#f0ab3c" stroke-width="3.5" opacity=".65"/><path d="M612 286 v160" stroke="#f0ab3c" stroke-width="3.5" opacity=".65"/><rect x="752" y="216" width="40" height="40" rx="10" stroke="#58d5c9" stroke-width="3.5" transform="rotate(-8 772 236)" opacity="0.95"/><rect x="792" y="280" width="40" height="40" rx="10" stroke="#a78bfa" stroke-width="3.5" transform="rotate(6 812 300)" opacity="0.83"/><rect x="742" y="346" width="40" height="40" rx="10" stroke="#f472b6" stroke-width="3.5" transform="rotate(-5 762 366)" opacity="0.71"/><rect x="804" y="412" width="40" height="40" rx="10" stroke="#58d5c9" stroke-width="3.5" transform="rotate(8 824 432)" opacity="0.59"/><rect x="680" y="460" width="40" height="40" rx="10" stroke="#f0ab3c" stroke-width="3.5" transform="rotate(-7 700 480)" opacity="0.47"/><path d="M330 380 l42 42 84-88" stroke="#58d5c9" stroke-width="7"/></g>
  <rect x="120" y="578" width="960" height="2" fill="url(#hairline)"/>
</svg>
